<svg id="Layer_1" data-name="Layer 1" xmlns="http://www.w3.org/2000/svg" viewBox="0 0 205.39 375.15">
  <defs>
    <style>
      .cls-1, .cls-3 {
        fill: #202020;
      }

      .cls-2 {
        fill: none;
        stroke-width: 11px;
      }

      .cls-2, .cls-3 {
        stroke: #202020;
        stroke-miterlimit: 10;
      }
    </style>
  </defs>
  <title>codebravoLogo_black</title>
  <path class="cls-1" d="M248.5,426.5l-12.42-21.95-12.59-22.11-25.66-44.7-25.91-45.42c-8.66-15.22-17.2-30.59-25.77-45.93l-1.09-2,1.09-2.1L158,219.51,170,196.74l23.93-45.52c8-15.17,16.08-30.28,24.12-45.42l24.15-45.39L247,51.35l4.86,9L276.37,106l24.5,45.62,24.3,45.72,12.14,22.87,12,22.93,1.1,2.09-1.09,2c-8.44,15.27-16.85,30.58-25.39,45.73l-25.53,45.23-25.28,44.5-12.42,22Zm0,0,12-23.49,11.85-23.32,23.26-46.17,23-45.45c7.64-15.08,15.41-30,23.15-44.94v4.06L329.2,224.58l-12.5-22.67-25-45.36L266.92,111.1,242.17,65.62l9.68,0-24.39,45.28C219.32,126,211.25,141.08,203,156.13l-24.61,45.15-12.31,22.57L153.7,246.37v-4.06c7.86,15,15.76,30,23.52,45.14l23.38,45.66,23.64,46.38,12,23.42Z" transform="translate(-145.06 -51.35)"/>
  <line class="cls-2" x1="118.48" y1="282.12" x2="71.44" y2="139.3"/>
  <polyline class="cls-3" points="95.08 137.12 100.12 145.74 56.84 159.41 48.76 141.17 73.9 133.23"/>
  <line class="cls-2" x1="82.76" y1="281.12" x2="129.8" y2="138.3"/>
  <polyline class="cls-3" points="106.16 137.12 105.12 145.74 147.4 159.41 153.48 140.17 129.34 132.23"/>
</svg>
