<?xml version="1.0" encoding="UTF-8"?>
<svg width="1200pt" height="1200pt" version="1.1" viewBox="0 0 1200 1200" xmlns="http://www.w3.org/2000/svg">
 <path d="m600 50.016c-145.87 0-285.74 57.938-388.92 161.06-103.12 103.17-161.06 243.05-161.06 388.92 0 145.87 57.938 285.74 161.06 388.92 103.17 103.12 243.05 161.06 388.92 161.06 145.87 0 285.74-57.938 388.92-161.06 103.12-103.17 161.06-243.05 161.06-388.92 0-145.87-57.938-285.74-161.06-388.92-103.17-103.12-243.05-161.06-388.92-161.06zm54.984 825h-109.97v-330h110.02zm-54.984-440.02c-22.266 0-42.281-13.406-50.812-33.938-8.5312-20.578-3.7969-44.203 11.906-59.953 15.75-15.75 39.422-20.438 59.953-11.906 20.531 8.4844 33.938 28.547 33.938 50.812 0.14062 14.625-5.5781 28.688-15.938 39.047-10.359 10.312-24.422 16.078-39.047 15.938z"/>
</svg>
