<?xml version="1.0" encoding="UTF-8"?>
<svg width="1200pt" height="1200pt" version="1.1" viewBox="0 0 1200 1200" xmlns="http://www.w3.org/2000/svg">
 <path d="m129.79 241.45c17.344-10.688 37.312-16.359 57.703-16.453h825c20.391 0.09375 40.359 5.7656 57.703 16.453l-449.39 299.63c-12.609 8.4375-29.016 8.4375-41.625 0zm532.5 362.02c-37.781 25.266-87.047 25.266-124.82 0l-455.44-303.74c-4.5469 12.094-6.8906 24.891-7.0312 37.781v525c0 62.109 50.391 112.5 112.5 112.5h825c62.109 0 112.5-50.391 112.5-112.5v-525c-0.14062-12.891-2.4844-25.688-6.9844-37.781z"/>
</svg>
