<?xml version="1.0" encoding="UTF-8"?>
<svg width="1200pt" height="1200pt" version="1.1" viewBox="0 0 1200 1200" xmlns="http://www.w3.org/2000/svg">
 <path d="m894 831.6-183.6-94.801c-26.398-13.199-57.602-6-75.602 16.801l-67.199 86.398c-66-34.801-115.2-68.398-172.8-127.2-61.195-61.199-94.797-112.8-128.4-176.4l85.199-66c22.801-18 30-49.199 16.801-75.602l-94.801-182.4c-16.801-32.398-57.602-42-87.602-22.801l-116.4 78c-27.602 18-42 49.199-40.801 81.602 2.3984 33.602 6 75.602 14.398 104.4 33.602 130.8 115.2 265.2 230.4 379.2 114 114 249.6 195.6 379.2 230.4 28.801 7.1992 70.801 12 104.4 14.398 32.398 2.3984 64.801-13.199 82.801-42l75.602-117.6c20.406-29.992 9.6055-70.793-21.594-86.391z"/>
 <path d="m1122 122.4h-578.4c-26.398 0-48 21.602-48 48v31.199l337.2 141.6 337.2-141.6v-31.199c0-26.398-21.602-48-48-48z"/>
 <path d="m832.8 421.2c-10.801 0-20.398-2.3984-30-6l-307.2-128.4v277.2c0 26.398 21.602 48 48 48h579.6c26.398 0 48-21.602 48-48l-0.003906-277.2-308.4 128.4c-9.6016 3.6016-19.199 6-30 6z"/>
</svg>
