<?xml version="1.0" encoding="UTF-8"?>
<svg width="1200pt" height="1200pt" version="1.1" viewBox="0 0 1200 1200" xmlns="http://www.w3.org/2000/svg">
 <path d="m451.37 287.7c-0.40625-151.23 201.58-206.53 277.67-74.723 66.277 114.8-40.164 252.16-167.34 218.09-44.09-11.809-79.98-43.02-98.09-84.793-111.56 50.113-187.96 148.37-203.66 270.39-4.9453 38.398-63.215 30.898-58.285-7.3906 16.559-128.57 90.203-234.35 202.23-299.04l0.046875 0.070313 36.898-18.324 0.023437 0.070313c3.4648-1.5117 6.9805-2.9492 10.508-4.3555zm544.85 428.96c20.531-143.75-38.797-287.48-153.52-375.01-30.66-23.398-66.348 23.363-35.688 46.754 95.113 72.574 145.69 190.43 132.34 309.82-72.77-8.1367-141.21 38.27-160.27 109.4-34.309 128.05 104.68 233.52 218.09 167.34 101.45-59.195 97.043-202.75-0.94922-258.3zm-599.95 219.19c96.898 71.316 225.2 86.699 336.14 39.742 35.41-14.988 58.297 39.121 22.824 54.133-134.28 56.844-289.56 35.746-404.04-54.359-114.8 65.461-251.39-40.906-217.39-167.75 34.043-127.05 206.18-150.89 272.59-35.832 29.957 51.898 25.855 116.51-10.133 164.06z" fill-rule="evenodd"/>
</svg>
