<?xml version="1.0" encoding="UTF-8"?>
<svg width="1200pt" height="1200pt" version="1.1" viewBox="0 0 1200 1200" xmlns="http://www.w3.org/2000/svg">
 <path d="m64.5 381.05h274.26c17.25 0 34.5-13.781 34.5-34.5l-0.046875-248.21c0-17.25-13.781-34.5-34.5-34.5h-274.22c-17.25 0-34.5 13.781-34.5 34.5v251.68c0 17.25 13.781 31.031 34.5 31.031z"/>
 <path d="m64.5 756.89h274.26c17.25 0 34.5-13.781 34.5-34.5l-0.046875-251.68c0-17.25-13.781-34.5-34.5-34.5h-274.22c-17.25 0-34.5 13.781-34.5 34.5v251.68c0 20.672 13.781 34.5 34.5 34.5z"/>
 <path d="m64.5 1132.7h274.26c17.25 0 34.5-13.781 34.5-34.5l-0.046875-251.68c0-17.25-13.781-34.5-34.5-34.5l-274.22 0.046875c-17.25 0-34.5 13.781-34.5 34.5v251.68c0 20.672 13.781 34.453 34.5 34.453z"/>
 <path d="m428.39 412.08v689.53c0 17.25 13.781 34.5 34.5 34.5h274.26c17.25 0 34.5-13.781 34.5-34.5l-0.046876-1003.3c0-17.25-13.781-34.5-34.5-34.5h-274.26c-17.25 0-34.5 13.781-34.5 34.5z"/>
 <path d="m861.24 1132.7h274.26c17.25 0 34.5-13.781 34.5-34.5v-999.84c0-17.25-13.781-34.5-34.5-34.5h-274.26c-17.25 0-34.5 13.781-34.5 34.5v1003.3c0.046875 17.25 13.828 31.031 34.5 31.031z"/>
</svg>
