<?xml version="1.0" encoding="UTF-8"?>
<svg width="1200pt" height="1200pt" version="1.1" viewBox="0 0 1200 1200" xmlns="http://www.w3.org/2000/svg">
 <path d="m575.29 87.516-427.5 427.5c-53.672 53.672-83.859 126.52-83.859 202.45v383.72-0.046875c0 19.266 15.609 34.875 34.875 34.875h40.078c23.109 0 41.859-18.703 41.859-41.859v-376.69c0-44.953 17.812-88.078 49.641-119.86l433.26-433.31c4.6875-4.7344 7.3594-11.109 7.3594-17.812 0-6.6562-2.6719-13.031-7.3594-17.766l-41.203-41.203c-13.031-13.031-34.125-13.031-47.156 0zm179.9 171.84-39.234 39.281c-6 6-9.375 14.156-9.375 22.641s3.375 16.641 9.375 22.641l241.22 241.18c39.797 39.797 62.109 93.703 62.109 149.95v371.9c0 7.7344 3.0469 15.094 8.5312 20.578 5.4375 5.4375 12.844 8.4844 20.531 8.4844h60c7.3594 0 14.391-2.9062 19.594-8.0625 5.1562-5.2031 8.0625-12.234 8.0625-19.594v-373.26c0-87.188-34.641-170.86-96.281-232.55l-243.14-243.19c-5.4844-5.4844-12.938-8.5312-20.719-8.5312-7.7344 0-15.188 3.0469-20.672 8.5312z"/>
</svg>
