<?xml version="1.0" encoding="UTF-8"?>
<svg width="1200pt" height="1200pt" version="1.1" viewBox="0 0 1200 1200" xmlns="http://www.w3.org/2000/svg">
 <path d="m600 1100c-132.61 0-259.78-52.688-353.53-146.48-93.797-93.75-146.48-220.92-146.48-353.53 0-132.61 52.688-259.78 146.48-353.53 93.75-93.797 220.92-146.48 353.53-146.48 132.61 0 259.78 52.688 353.53 146.48 93.797 93.75 146.48 220.92 146.48 353.53-0.14062 132.56-52.875 259.64-146.63 353.39-93.754 93.742-220.82 146.48-353.39 146.63zm0-900c-106.08 0-207.84 42.141-282.84 117.14s-117.14 176.76-117.14 282.84 42.141 207.84 117.14 282.84 176.76 117.14 282.84 117.14 207.84-42.141 282.84-117.14 117.14-176.76 117.14-282.84c-0.09375-106.03-42.281-207.71-117.28-282.71s-176.68-117.19-282.71-117.28z"/>
 <path d="m600 465.52c13.266 0 25.969 5.25 35.344 14.625s14.672 22.078 14.672 35.344v339c0 27.609-22.406 50.016-50.016 50.016s-50.016-22.406-50.016-50.016v-339c0-27.609 22.406-49.969 50.016-49.969z"/>
 <path d="m600 295.5c27.609 0 50.016 27.609 50.016 50.016 0 27.609-22.406 50.016-50.016 50.016s-50.016-27.609-50.016-50.016c0-27.609 22.406-50.016 50.016-50.016z"/>
</svg>
