<?xml version="1.0" encoding="UTF-8"?>
<svg width="1200pt" height="1200pt" version="1.1" viewBox="0 0 1200 1200" xmlns="http://www.w3.org/2000/svg">
 <path d="m950 300h-150c0-85-65-150-150-150h-100c-85 0-150 65-150 150h-150c-85 0-150 65-150 150v450c0 85 65 150 150 150h700c85 0 150-65 150-150v-450c0-85-65-150-150-150zm-400-50h100c30 0 50 20 50 50h-200c0-30 20-50 50-50zm-300 150h700c30 0 50 20 50 50 0 55-45 100-100 100h-600c-55 0-100-45-100-100 0-30 20-50 50-50zm700 550h-700c-30 0-50-20-50-50v-280c30 20 65 30 100 30h600c35 0 70-10 100-30v280c0 30-20 50-50 50z"/>
</svg>
