<?xml version="1.0" encoding="UTF-8"?>
<svg width="1200pt" height="1200pt" version="1.1" viewBox="0 0 1200 1200" xmlns="http://www.w3.org/2000/svg">
 <path d="m1064.3 366.56v195.28c-0.09375 27.047-16.828 51.234-42.094 60.797l-20.484 7.5938-379.45 139.18c-14.344 5.25-30.094 5.25-44.438 0l-379.45-139.18c-34.5-4.9219-60.75-33.562-62.578-68.391v-195.28c-0.046874-17.062 6.7031-33.469 18.797-45.516 12.047-12.094 28.453-18.844 45.516-18.797h799.87c17.062-0.046875 33.469 6.7031 45.516 18.797 12.094 12.047 18.844 28.453 18.797 45.516zm-417.56 470.86c-30.281 11.062-63.469 11.062-93.75 0l-354.71-130.31v347.11c-0.09375 35.672 28.781 64.688 64.453 64.828h674.63c35.672-0.14062 64.547-29.156 64.453-64.828v-347.06zm21.703-756.47h-136.78c-23.438 0-45.938 9.2812-62.484 25.875-16.594 16.547-25.875 39.047-25.828 62.438v60.469h72.375v-60.469c-0.046875-4.2188 1.6406-8.2969 4.6406-11.25 3-3 7.0312-4.6875 11.297-4.6406h136.82-0.046874c4.2656-0.046875 8.2969 1.6406 11.297 4.6406 3 2.9531 4.6875 7.0312 4.6406 11.25v60.469h72.375v-60.469c0.046874-23.391-9.2344-45.891-25.828-62.438-16.547-16.594-39.047-25.875-62.484-25.875z"/>
</svg>
